<?xml version="1.0" encoding="UTF-8"?><svg id="Calque_1" xmlns="http://www.w3.org/2000/svg" viewBox="0 0 409.6 409.6"><defs><style>.cls-1{fill:#fff800;}.cls-2{fill:#0d0a22;}</style></defs><path class="cls-2" d="M409.6,204.8c0,113.1-91.7,204.8-204.8,204.8S0,317.91,0,204.8,91.69,0,204.8,0s204.8,91.69,204.8,204.8h0Zm0,0"/><path class="cls-1" d="M129.34,24.76H35.82c-15.8,0-26.2,9.94-26.2,21.24v221c10.43,32.79,28.91,61.99,53.11,85.31,9.99-3.29,17.37-9.62,17.37-18.97v-97.59h44.72c62.35,0,111.14-28.91,111.14-104.82v-2.26c0-75.9-46.99-103.91-106.62-103.91h0Zm36.14,111.6c0,30.72-15.35,45.17-40.66,45.17h-44.72V86.21h44.72c25.3,0,40.66,14.45,40.66,45.17v4.98Zm0,0"/><path class="cls-1" d="M293.36,203.67c0-6.78,7.68-14.47,25.75-14.47,24.4,0,38.4,13.56,50.61,13.56,16.26,0,25.3-23.95,25.3-32.99,0-18.98-37.5-32.52-76.8-32.52-64.15,0-84.93,36.14-84.93,69.57,0,75.9,105.71,54.66,105.71,85.84,0,6.32-4.06,14.9-28,14.9-36.14,0-46.54-20.33-61-20.33s-23.04,19.88-23.04,30.72c0,22.14,38.4,41.56,85.84,41.56,10.75,0,20.57-.99,29.42-2.88,25.03-22.64,44.42-51.4,55.85-83.9-14.39-59.63-104.7-45.8-104.7-69.08h0Zm0,0"/></svg>