<?xml version="1.0" encoding="UTF-8"?><svg id="Calque_1" xmlns="http://www.w3.org/2000/svg" viewBox="0 0 409.6 409.6"><defs><style>.cls-1{fill:#fff800;}</style></defs><path d="M409.6,204.8c0,113.1-91.7,204.8-204.8,204.8S0,317.91,0,204.8,91.69,0,204.8,0s204.8,91.69,204.8,204.8h0Zm0,0"/><path class="cls-1" d="M279.95,323.58L195.54,48.23c-4.96-15.8-25.28-23.47-46.04-23.47s-41.08,7.68-46.04,23.47L25.52,303.86c11.12,20.11,25.55,38.15,42.53,53.39,9.23-.85,16.35-4.66,18.71-12.9l15.35-56.43h95.25l15.35,56.43c2.71,9.48,11.73,13.09,23.02,13.09,19.41,0,45.14-12.19,45.14-28.89,0-1.35-.45-3.16-.9-4.96h0ZM116.55,233.75l32.95-120.97,32.95,120.97H116.55Zm0,0"/><path class="cls-1" d="M337.72,36.5c-4.68,0-9.12,.75-13.2,2.12-14.06,4.7-23.82,16.64-23.82,29.93,0,17.15,16.25,32.5,37.02,32.5,13.98,0,26.05-7.28,32.21-17.41,2.78-4.58,4.36-9.75,4.36-15.09,0-17.15-16.25-32.05-36.56-32.05h0Zm0,106.08c-20.31,0-34.76,8.58-34.76,21.21v171.98c0,10.84,14.45,21.67,34.76,21.67,1.28,0,2.54-.05,3.78-.14,11.79-10.57,22.35-22.5,31.43-35.53V163.79c0-12.64-15.8-21.21-35.21-21.21h0Zm0,0"/></svg>