<?xml version="1.0" encoding="UTF-8"?><svg id="Calque_1" xmlns="http://www.w3.org/2000/svg" viewBox="0 0 409.6 409.6"><defs><style>.cls-1{fill:#fff800;}</style></defs><path d="M409.6,204.8c0,113.1-91.7,204.8-204.8,204.8S0,317.91,0,204.8,91.69,0,204.8,0s204.8,91.69,204.8,204.8h0Zm0,0"/><path class="cls-1" d="M93.26,33.02c-4.82-1.14-10.07-1.68-15.33-1.68-18.29,0-36.59,6.57-36.59,22.05V328.2c13.18,17.44,29.1,32.7,47.1,45.16,14.2-2.35,26.07-9.57,26.07-21.66V53.39c0-11.04-9.3-17.54-21.26-20.37h0Zm0,0"/><path class="cls-1" d="M332.61,23.37c-9.18,0-17.52,1.77-23.96,4.88-8.03,3.88-13.1,9.87-13.1,17.16V183.78c-9.85-18.29-30.96-35.64-59.57-35.64-45.97,0-83.02,44.55-83.02,98.5v32.84c0,52.06,37.99,99.43,81.62,99.43,30.02,0,56.28-18.29,65.66-37.53v10.32c0,8.89,9.07,17.78,21.68,21.12,17.7-12.35,33.34-27.42,46.34-44.61V45.41c0-13.13-15.01-22.04-35.64-22.04h0Zm-37.05,262.19c0,7.97-15.95,30.01-36.12,30.01-18.76,0-33.77-17.82-33.77-36.11v-32.84c0-17.82,15.01-35.18,34.24-35.18,16.89,0,35.65,13.13,35.65,35.18v38.93Zm0,0"/></svg>