<?xml version="1.0" encoding="utf-8"?>
<!-- Generator: Adobe Illustrator 26.3.1, SVG Export Plug-In . SVG Version: 6.00 Build 0)  -->
<svg version="1.1" id="Calque_1" xmlns="http://www.w3.org/2000/svg" xmlns:xlink="http://www.w3.org/1999/xlink" x="0px" y="0px"
	 viewBox="0 0 64 64" style="enable-background:new 0 0 64 64;" xml:space="preserve">
<style type="text/css">
	.st0{fill:#FFF800;}
</style>
<path class="st0" d="M55,10H9c-2.2,0-4,1.8-4,4v34c0,2.2,1.8,4,4,4h46c2.2,0,4-1.8,4-4V14C59,11.8,57.2,10,55,10z M55,45.7
	c0,1.3-1.1,2.3-2.4,2.3h-3.1L51,21L32,33L13,22l1.5,26h-3.1C10.1,48,9,47,9,45.7V16.3C9,15,10,14,11.3,14h1.2L32,29l19.5-15h1.2
	c1.3,0,2.3,1,2.3,2.3V45.7z"/>
</svg>
