<?xml version="1.0" encoding="utf-8"?>
<!-- Generator: Adobe Illustrator 26.3.1, SVG Export Plug-In . SVG Version: 6.00 Build 0)  -->
<svg version="1.1" id="Calque_1" xmlns="http://www.w3.org/2000/svg" xmlns:xlink="http://www.w3.org/1999/xlink" x="0px" y="0px"
	 viewBox="0 0 48 48" style="enable-background:new 0 0 48 48;" xml:space="preserve">
<style type="text/css">
	.st0{fill:#FFF800;}
	.st1{fill:#FFFFFF;}
</style>
<path class="st0" d="M42,37c0,2.8-2.2,5-5,5H11c-2.8,0-5-2.2-5-5V11c0-2.8,2.2-5,5-5h26c2.8,0,5,2.2,5,5V37z"/>
<path class="st1" d="M33,25.6c-0.7-0.9-1.6-1.5-2.8-1.9c0,0,1-0.4,1.9-1.8c0.5-0.9,0.8-1.9,0.8-3.2c0-2.1-0.8-3.8-2.3-4.9
	c-1.6-1.1-3.3-1.9-6.3-1.9H15v24h10.4c2.8,0,5-0.6,6.4-1.8c1.4-1.2,2.2-3,2.2-5.3C34,27.6,33.7,26.5,33,25.6z M21,16
	c0,0,4.2,0,4.2,0c1.5,0,2.8,1.2,2.8,2.7s-1.2,2.8-2.8,2.8c-0.1,0-4.2,0-4.2,0V16z M26,32h-5v-6h5c1.7,0,3,1.3,3,3S27.7,32,26,32z"/>
</svg>
