<?xml version="1.0" encoding="utf-8"?>
<!-- Generator: Adobe Illustrator 26.3.1, SVG Export Plug-In . SVG Version: 6.00 Build 0)  -->
<svg version="1.1" id="Calque_1" xmlns="http://www.w3.org/2000/svg" xmlns:xlink="http://www.w3.org/1999/xlink" x="0px" y="0px"
	 viewBox="0 0 50 50" style="enable-background:new 0 0 50 50;" xml:space="preserve">
<style type="text/css">
	.st0{fill:#FFF200;}
</style>
<path class="st0" d="M41.3,11.3c-0.2-0.2-0.4-0.2-0.6-0.2H9.4c-0.2,0-0.5,0.1-0.6,0.2S8.5,11.7,8.6,12l2.8,31.6
	c0,0.3,0.2,0.6,0.6,0.7L24.8,48c0.1,0,0.2,0,0.2,0s0.2,0,0.2,0l12.8-3.7c0.3-0.1,0.6-0.4,0.6-0.7L41.4,12
	C41.5,11.7,41.4,11.5,41.3,11.3z M34.5,22.3H19.4l0.3,4.1h14.4l-1,12l-8.1,2.4h-0.1L17,38.4l-0.4-4.9h3.9l0.2,1.9l4.5,1l4.4-1
	l0.5-5.1H16.2l-1-11.9h19.7L34.5,22.3z"/>
</svg>
