<?xml version="1.0" encoding="utf-8"?>
<!-- Generator: Adobe Illustrator 26.3.1, SVG Export Plug-In . SVG Version: 6.00 Build 0)  -->
<svg version="1.1" id="Calque_1" xmlns="http://www.w3.org/2000/svg" xmlns:xlink="http://www.w3.org/1999/xlink" x="0px" y="0px"
	 viewBox="0 0 50 50" style="enable-background:new 0 0 50 50;" xml:space="preserve">
<style type="text/css">
	.st0{fill:#FFF800;}
</style>
<path class="st0" d="M41,4H9C6.2,4,4,6.2,4,9v32c0,2.8,2.2,5,5,5h32c2.8,0,5-2.2,5-5V9C46,6.2,43.8,4,41,4z M37,22.3
	c-0.2,0-0.5,0-0.7,0c-2.6,0-4.9-1.3-6.3-3.4c0,5.3,0,11.4,0,11.5c0,4.7-3.8,8.5-8.5,8.5S13,35.2,13,30.5s3.8-8.5,8.5-8.5
	c0.2,0,0.4,0,0.5,0v4.2c-0.2,0-0.3-0.1-0.5-0.1c-2.4,0-4.4,1.9-4.4,4.4s1.9,4.4,4.4,4.4S26,33,26,30.6c0-0.1,0-19.6,0-19.6h4
	c0.4,3.6,3.3,6.4,6.9,6.7V22.3z"/>
</svg>
