<?xml version="1.0" encoding="UTF-8"?><svg id="Calque_1" xmlns="http://www.w3.org/2000/svg" viewBox="0 0 490.24 66.43"><defs><style>.cls-1{fill:#fff;}.cls-2{fill:#f6e81d;}</style></defs><path class="cls-1" d="M39.8,44.95v21.48H22.85v-21.74L0,6.52H17.89l14.21,23.79L46.3,6.52h16.43l-22.94,38.43Z"/><path class="cls-1" d="M98.09,23.41c4.05,3.51,6.08,8.89,6.08,16.13v25.76h-15.15v-5.99c-2.34,4.51-6.91,6.76-13.69,6.76-3.6,0-6.71-.63-9.33-1.88-2.63-1.26-4.61-2.95-5.95-5.09-1.34-2.14-2.01-4.58-2.01-7.32,0-4.39,1.68-7.8,5.05-10.23,3.37-2.42,8.56-3.64,15.58-3.64h9.24c-.29-4.91-3.57-7.36-9.84-7.36-2.23,0-4.48,.36-6.76,1.07-2.28,.71-4.22,1.7-5.82,2.95l-5.47-11.04c2.57-1.71,5.69-3.04,9.37-3.98,3.68-.94,7.37-1.41,11.08-1.41,7.7,0,13.58,1.75,17.63,5.26Zm-13.27,31.03c1.42-.91,2.45-2.25,3.08-4.02v-4.02h-7.02c-4.74,0-7.1,1.57-7.1,4.7,0,1.43,.54,2.57,1.63,3.42,1.08,.86,2.57,1.29,4.45,1.29s3.54-.46,4.97-1.37Z"/><path class="cls-1" d="M162.27,46.22h-33.72c.68,2.4,2.01,4.23,3.98,5.52,1.97,1.28,4.44,1.93,7.4,1.93,2.23,0,4.15-.31,5.78-.94,1.63-.63,3.27-1.65,4.92-3.08l8.56,8.9c-4.51,5.02-11.1,7.53-19.77,7.53-5.42,0-10.19-1.03-14.29-3.08-4.11-2.05-7.29-4.9-9.55-8.56-2.25-3.65-3.38-7.79-3.38-12.41s1.1-8.66,3.29-12.28c2.19-3.63,5.23-6.46,9.11-8.52,3.88-2.05,8.24-3.08,13.09-3.08s8.82,.95,12.58,2.87c3.76,1.91,6.75,4.68,8.94,8.3,2.2,3.62,3.29,7.92,3.29,12.88,0,.12-.08,1.46-.25,4.03ZM123.46,11.6c-1.28-1.23-1.93-2.84-1.93-4.84s.64-3.62,1.93-4.88c1.29-1.25,2.9-1.88,4.84-1.88s3.55,.63,4.83,1.88c1.29,1.26,1.93,2.88,1.93,4.88s-.64,3.61-1.93,4.84c-1.28,1.23-2.89,1.84-4.83,1.84s-3.55-.61-4.84-1.84Zm8.04,20.24c-1.68,1.43-2.75,3.37-3.21,5.82h19c-.46-2.45-1.53-4.39-3.21-5.82s-3.78-2.14-6.29-2.14-4.61,.71-6.29,2.14Zm10.1-20.24c-1.28-1.23-1.93-2.84-1.93-4.84s.64-3.62,1.93-4.88c1.29-1.25,2.9-1.88,4.84-1.88s3.55,.63,4.83,1.88c1.29,1.26,1.93,2.88,1.93,4.88s-.64,3.61-1.93,4.84c-1.28,1.23-2.89,1.84-4.83,1.84s-3.55-.61-4.84-1.84Z"/><path class="cls-1" d="M170.06,1.8h16.26v63.5h-16.26V1.8Z"/><path class="cls-2" d="M260.72,62.25v-9.38h36.63v9.38h-36.63Z"/><path class="cls-1" d="M254.62,6.52v59.91h-13.95l-26.45-31.92v31.92h-16.6V6.52h13.95l26.45,31.92V6.52h16.6Z"/><path class="cls-1" d="M267.75,48.62c-3.35-.79-6.05-1.82-8.08-3.09l4.35-9.91c1.88,1.17,4.11,2.09,6.71,2.78,2.59,.69,5.16,1.03,7.7,1.03,2.34,0,4-.24,4.99-.73,.99-.48,1.49-1.18,1.49-2.1s-.6-1.56-1.79-1.94c-1.2-.38-3.09-.75-5.68-1.11-3.31-.41-6.11-.94-8.42-1.6-2.31-.66-4.31-1.88-5.98-3.66-1.68-1.78-2.52-4.27-2.52-7.47,0-2.64,.79-4.99,2.36-7.05,1.57-2.06,3.88-3.68,6.9-4.88,3.02-1.19,6.64-1.79,10.86-1.79,3,0,5.97,.3,8.92,.91,2.95,.61,5.41,1.47,7.4,2.59l-4.35,9.83c-3.66-2.03-7.63-3.05-11.89-3.05-2.29,0-3.96,.27-5.03,.8s-1.6,1.23-1.6,2.1c0,.97,.59,1.64,1.76,2.02,1.17,.38,3.1,.78,5.79,1.18,3.4,.51,6.22,1.09,8.46,1.76,2.23,.66,4.18,1.87,5.83,3.62,1.65,1.75,2.48,4.21,2.48,7.36,0,2.59-.79,4.92-2.36,6.98-1.58,2.06-3.9,3.67-6.98,4.84-3.08,1.17-6.77,1.76-11.09,1.76-3.46,0-6.86-.4-10.22-1.18Z"/><path class="cls-1" d="M354.23,46.22h-33.72c.68,2.4,2.01,4.23,3.98,5.52,1.97,1.28,4.44,1.93,7.4,1.93,2.23,0,4.15-.31,5.78-.94,1.63-.63,3.27-1.65,4.92-3.08l8.56,8.9c-4.51,5.02-11.1,7.53-19.77,7.53-5.42,0-10.19-1.03-14.29-3.08-4.11-2.05-7.29-4.9-9.55-8.56-2.25-3.65-3.38-7.79-3.38-12.41s1.1-8.66,3.29-12.28c2.19-3.63,5.23-6.46,9.11-8.52,3.88-2.05,8.24-3.08,13.09-3.08s8.82,.95,12.58,2.87c3.76,1.91,6.75,4.68,8.94,8.3s3.29,7.92,3.29,12.88c0,.12-.08,1.46-.25,4.03Zm-30.77-14.38c-1.68,1.43-2.75,3.37-3.21,5.82h19c-.46-2.45-1.53-4.39-3.21-5.82s-3.78-2.14-6.29-2.14-4.61,.71-6.29,2.14Z"/><path class="cls-1" d="M383.08,50.04l-4.79,4.88v11.38h-16.26V2.8h16.26V36.09l16.6-16.18h19.26l-19.26,19.85,20.88,26.53h-19.69l-13.01-16.26Z"/><path class="cls-1" d="M465.84,46.22h-33.72c.68,2.4,2.01,4.23,3.98,5.52,1.97,1.28,4.44,1.93,7.4,1.93,2.23,0,4.15-.31,5.78-.94,1.63-.63,3.27-1.65,4.92-3.08l8.56,8.9c-4.51,5.02-11.1,7.53-19.77,7.53-5.42,0-10.19-1.03-14.29-3.08-4.11-2.05-7.29-4.9-9.55-8.56-2.25-3.65-3.38-7.79-3.38-12.41s1.1-8.66,3.29-12.28c2.19-3.63,5.23-6.46,9.11-8.52,3.88-2.05,8.24-3.08,13.09-3.08s8.82,.95,12.58,2.87,6.75,4.68,8.94,8.3,3.29,7.92,3.29,12.88c0,.12-.08,1.46-.25,4.03Zm-30.77-14.38c-1.68,1.43-2.75,3.37-3.21,5.82h19c-.46-2.45-1.53-4.39-3.21-5.82s-3.78-2.14-6.29-2.14-4.61,.71-6.29,2.14Z"/><path class="cls-2" d="M473.55,63.33c-1.88-1.82-2.82-4.14-2.82-6.93s.93-5.16,2.78-6.93c1.85-1.77,4.18-2.65,6.98-2.65s5.19,.88,7.02,2.65c1.83,1.77,2.74,4.08,2.74,6.93s-.93,5.11-2.78,6.93-4.18,2.74-6.98,2.74-5.05-.91-6.93-2.74Z"/></svg>